<?xml version="1.0" standalone="no"?>
<!DOCTYPE svg PUBLIC "-//W3C//DTD SVG 20010904//EN"
 "http://www.w3.org/TR/2001/REC-SVG-20010904/DTD/svg10.dtd">
<svg version="1.0" xmlns="http://www.w3.org/2000/svg"
 width="398.000000pt" height="398.000000pt" viewBox="0 0 398.000000 398.000000"
 preserveAspectRatio="xMidYMid meet">
<metadata>
Created by potrace 1.14, written by Peter Selinger 2001-2017
</metadata>
<g transform="translate(0.000000,398.000000) scale(0.100000,-0.100000)"
fill="#000000" stroke="none">
<path d="M2145 3162 c-149 -10 -381 -61 -500 -110 -268 -111 -456 -307 -472
-493 -5 -52 -11 -70 -36 -98 -56 -65 -75 -149 -55 -247 5 -27 11 -71 13 -99
14 -191 27 -271 51 -315 18 -33 54 -180 54 -220 0 -27 -2 -30 -19 -20 -22 11
-94 14 -104 4 -4 -4 -22 -8 -41 -10 -80 -7 -125 -53 -201 -204 -38 -75 -48
-104 -47 -140 0 -26 2 -51 3 -56 2 -5 -67 -149 -152 -320 -191 -381 -223 -469
-224 -609 0 -109 12 -152 53 -198 l26 -27 1403 0 c1235 0 1403 2 1403 15 0 8
-14 57 -30 109 -32 100 -82 170 -144 203 -48 26 -265 97 -333 108 -21 4 -45 8
-53 10 -8 1 -21 -2 -27 -7 -7 -6 -24 -7 -38 -4 -21 5 -25 12 -25 41 0 19 -1
38 -2 43 -2 4 19 12 46 19 139 34 257 136 388 333 123 184 158 273 152 391 -1
42 -37 305 -79 589 -28 187 -28 171 1 235 27 61 31 111 35 395 1 64 -24 127
-75 186 -18 22 -43 59 -56 83 -31 61 -111 143 -185 190 -106 67 -278 131 -395
146 -25 3 -54 8 -65 10 -11 2 -33 4 -50 5 -29 2 -29 2 10 14 36 12 38 14 20
23 -39 21 -151 32 -250 25z m-539 -2253 c18 -33 51 -71 85 -99 81 -64 230
-151 327 -190 l83 -33 -3 -66 c-3 -65 -3 -65 -35 -72 -17 -3 -36 -2 -41 3 -10
10 -200 -21 -332 -54 -94 -23 -101 -24 -180 -15 -30 4 -86 9 -125 12 -38 3
-124 16 -190 27 -66 12 -140 22 -164 22 -42 1 -47 -2 -79 -44 -41 -53 -57 -63
-49 -28 4 14 9 43 13 64 3 21 10 46 14 54 4 8 8 18 8 23 0 9 14 98 18 112 2 6
5 24 9 40 3 17 10 50 15 75 6 25 13 56 15 70 3 14 12 59 21 100 l16 75 101 0
c94 0 106 2 156 30 30 17 81 56 113 87 36 36 67 58 81 58 12 0 29 5 37 10 12
8 18 -8 36 -99 13 -67 32 -129 50 -162z"/>
</g>
</svg>
