<svg xmlns="http://www.w3.org/2000/svg" xmlns:xlink="http://www.w3.org/1999/xlink" width="128" height="128" viewBox="0 0 128 128">
  <defs>
    <filter id="Subtraction_7" x="11" y="4" width="106.44" height="120.604" filterUnits="userSpaceOnUse">
      <feOffset dy="3" input="SourceAlpha"/>
      <feGaussianBlur stdDeviation="3" result="blur"/>
      <feFlood flood-opacity="0.161" result="color"/>
      <feComposite operator="out" in="SourceGraphic" in2="blur"/>
      <feComposite operator="in" in="color"/>
      <feComposite operator="in" in2="SourceGraphic"/>
    </filter>
    <clipPath id="clip-mark">
      <rect width="128" height="128"/>
    </clipPath>
  </defs>
  <g id="mark" clip-path="url(#clip-mark)">
    <g data-type="innerShadowGroup">
      <path id="Subtraction_7-2" data-name="Subtraction 7" d="M53.3,120.6a5.8,5.8,0,0,1-2.887-.772l-3.44-1.982V88.356H59.718V117.8l-3.535,2.03A5.787,5.787,0,0,1,53.3,120.6Zm-10.327-5.058h0L24.628,104.976V40.454a1.984,1.984,0,0,0-.186-.844,4.375,4.375,0,1,0-3.628,0,1.983,1.983,0,0,0-.186.844v62.217L2.944,92.484A5.742,5.742,0,0,1,.069,87.53L0,32.954a5.743,5.743,0,0,1,2.881-4.972L42.4,5.282V49.23a2,2,0,0,0,2,2h17.9a2,2,0,0,0,2-2V34.477h17.9V49.1a1.975,1.975,0,0,0,.082.568,4.375,4.375,0,1,0,3.821.049,1.986,1.986,0,0,0,.1-.616V32.464a2,2,0,0,0-2-2,2.077,2.077,0,0,0-.226.013H62.294a2,2,0,0,0-2,2V47.229H46.4v-44a2.026,2.026,0,0,0-.013-.233L50.258.768a5.789,5.789,0,0,1,5.768,0L103.5,28.119a5.747,5.747,0,0,1,2.876,4.954l.068,54.575a5.743,5.743,0,0,1-2.881,4.972l-16.825,9.664V68.507a2,2,0,0,0-2-2H49.551a1.976,1.976,0,0,0-.667.113,4.376,4.376,0,1,0-.1,3.734,1.974,1.974,0,0,0,.767.153H82.734v34.076L63.718,115.507V86.355a2,2,0,0,0-2-2H44.974a2,2,0,0,0-2,2v29.191Zm2.031-44.537a2.5,2.5,0,1,1,2.5-2.5A2.5,2.5,0,0,1,45.005,71.008ZM84.259,56.256a2.5,2.5,0,1,1,2.5-2.5A2.5,2.5,0,0,1,84.259,56.256Zm-61.507-18a2.5,2.5,0,1,1,2.5-2.5A2.5,2.5,0,0,1,22.752,38.255Z" transform="translate(11 4)" fill="#5e2cad"/>
      <g transform="matrix(1, 0, 0, 1, 0, 0)" filter="url(#Subtraction_7)">
        <path id="Subtraction_7-3" data-name="Subtraction 7" d="M53.3,120.6a5.8,5.8,0,0,1-2.887-.772l-3.44-1.982V88.356H59.718V117.8l-3.535,2.03A5.787,5.787,0,0,1,53.3,120.6Zm-10.327-5.058h0L24.628,104.976V40.454a1.984,1.984,0,0,0-.186-.844,4.375,4.375,0,1,0-3.628,0,1.983,1.983,0,0,0-.186.844v62.217L2.944,92.484A5.742,5.742,0,0,1,.069,87.53L0,32.954a5.743,5.743,0,0,1,2.881-4.972L42.4,5.282V49.23a2,2,0,0,0,2,2h17.9a2,2,0,0,0,2-2V34.477h17.9V49.1a1.975,1.975,0,0,0,.082.568,4.375,4.375,0,1,0,3.821.049,1.986,1.986,0,0,0,.1-.616V32.464a2,2,0,0,0-2-2,2.077,2.077,0,0,0-.226.013H62.294a2,2,0,0,0-2,2V47.229H46.4v-44a2.026,2.026,0,0,0-.013-.233L50.258.768a5.789,5.789,0,0,1,5.768,0L103.5,28.119a5.747,5.747,0,0,1,2.876,4.954l.068,54.575a5.743,5.743,0,0,1-2.881,4.972l-16.825,9.664V68.507a2,2,0,0,0-2-2H49.551a1.976,1.976,0,0,0-.667.113,4.376,4.376,0,1,0-.1,3.734,1.974,1.974,0,0,0,.767.153H82.734v34.076L63.718,115.507V86.355a2,2,0,0,0-2-2H44.974a2,2,0,0,0-2,2v29.191Zm2.031-44.537a2.5,2.5,0,1,1,2.5-2.5A2.5,2.5,0,0,1,45.005,71.008ZM84.259,56.256a2.5,2.5,0,1,1,2.5-2.5A2.5,2.5,0,0,1,84.259,56.256Zm-61.507-18a2.5,2.5,0,1,1,2.5-2.5A2.5,2.5,0,0,1,22.752,38.255Z" transform="translate(11 4)" fill="#fff"/>
      </g>
    </g>
  </g>
</svg>
